<?xml version="1.0" encoding="UTF-8" standalone="no"?>
<!-- Created with Inkscape (http://www.inkscape.org/) -->

<svg
   width="8.8635454mm"
   height="8.8635435mm"
   viewBox="0 0 8.8635454 8.8635435"
   version="1.1"
   id="svg1"
   xml:space="preserve"
   inkscape:version="1.3 (0e150ed6c4, 2023-07-21)"
   sodipodi:docname="icon-arrowup.svg"
   xmlns:inkscape="http://www.inkscape.org/namespaces/inkscape"
   xmlns:sodipodi="http://sodipodi.sourceforge.net/DTD/sodipodi-0.dtd"
   xmlns="http://www.w3.org/2000/svg"
   xmlns:svg="http://www.w3.org/2000/svg"><sodipodi:namedview
     id="namedview1"
     pagecolor="#ffffff"
     bordercolor="#000000"
     borderopacity="0.25"
     inkscape:showpageshadow="2"
     inkscape:pageopacity="0.0"
     inkscape:pagecheckerboard="0"
     inkscape:deskcolor="#d1d1d1"
     inkscape:document-units="mm"
     inkscape:zoom="5.8558123"
     inkscape:cx="9.1362218"
     inkscape:cy="35.520264"
     inkscape:window-width="2560"
     inkscape:window-height="1366"
     inkscape:window-x="0"
     inkscape:window-y="0"
     inkscape:window-maximized="1"
     inkscape:current-layer="layer1" /><defs
     id="defs1" /><g
     inkscape:label="Layer 1"
     inkscape:groupmode="layer"
     id="layer1"
     transform="translate(-100.61728,-144.19602)"><g
       style="fill:none"
       id="g1"
       transform="matrix(0.26458333,0,0,0.26458333,106.37187,144.12988)"
       inkscape:export-filename="icon-arrowup.png"
       inkscape:export-xdpi="358.20883"
       inkscape:export-ydpi="358.20883"><path
         d="m 6.20039,10.6 c 2.65097,0 4.80001,-2.14903 4.80001,-4.8 0,-2.65097 -2.14904,-4.8 -4.80001,-4.8 -2.65097,0 -4.8,2.14903 -4.8,4.8 0,2.65097 2.14903,4.8 4.8,4.8 z"
         stroke="#ff67a0"
         stroke-width="1.5"
         id="path1" /></g><g
       style="fill:none"
       id="g2"
       transform="matrix(0.26458333,0,0,0.26458333,102.6678,147.56947)"><path
         d="M 1,7.19999 4.6688,3.53119 C 4.96884,3.23123 5.37574,3.06273 5.8,3.06273 c 0.42426,0 0.83116,0.1685 1.1312,0.46846 l 2.5376,2.5376 c 0.30004,0.29995 0.7069,0.46846 1.1312,0.46846 0.4243,0 0.8312,-0.16851 1.1312,-0.46846 L 17,0.799988 m 0,0 V 4.79999 m 0,-4.000002 h -4"
         stroke="#ff67a0"
         stroke-width="1.5"
         stroke-linecap="round"
         stroke-linejoin="round"
         id="path1-6" /></g><g
       style="fill:none"
       id="g3"
       transform="matrix(0.26458333,0,0,0.26458333,100.55114,144.12988)"><path
         opacity="0.5"
         d="M 33,14.6 V 17 c 0,7.5424 0,11.3136 -2.344,13.656 C 28.3152,33 24.5424,33 17,33 9.4576,33 5.6864,33 3.3424,30.656 1,28.3152 1,24.5424 1,17 1,9.4576 1,5.6864 3.3424,3.3424 5.688,1 9.4576,1 17,1 h 2.4"
         stroke="#ff67a0"
         stroke-width="1.5"
         stroke-linecap="round"
         id="path1-2" /></g></g></svg>
