<svg width="44" height="32" viewBox="0 0 44 32" fill="none" xmlns="http://www.w3.org/2000/svg">
<path d="M31.8621 9.35429V7.61905C31.8621 3.34667 24.8638 0 15.931 0C6.99828 0 0 3.34667 0 7.61905V15.2381C0 18.8838 5.09414 21.8514 12.1379 22.6457V24.381C12.1379 28.6533 19.1362 32 28.069 32C37.0017 32 44 28.6533 44 24.381V16.7619C44 13.1657 39.0443 10.1657 31.8621 9.35429ZM42.4828 16.7619C42.4828 19.7048 36.6907 22.8571 28.069 22.8571C26.2895 22.8598 24.513 22.7107 22.7586 22.4114V22.1467C28.1847 20.9448 31.8621 18.3371 31.8621 15.2381V10.8895C37.9728 11.619 42.4828 14.0819 42.4828 16.7619ZM18.2429 21.2552C17.4982 21.3073 16.7276 21.3333 15.931 21.3333C14.8936 21.3333 13.8979 21.2857 12.9478 21.2019H12.8966C12.1076 21.1295 11.349 21.0305 10.6207 20.9048V14.819C12.3768 15.1015 14.1526 15.2416 15.931 15.2381C17.7095 15.2416 19.4853 15.1015 21.2414 14.819V20.899C20.2668 21.0661 19.2844 21.1838 18.2979 21.2514L18.2429 21.2552ZM30.3448 10.9181V15.2381C30.3448 17.3105 27.4697 19.4857 22.7586 20.5924V14.5276C26.1022 13.7867 28.7802 12.5124 30.3448 10.9181ZM15.931 1.52381C24.5528 1.52381 30.3448 4.67619 30.3448 7.61905C30.3448 10.5619 24.5528 13.7143 15.931 13.7143C7.30931 13.7143 1.51724 10.5619 1.51724 7.61905C1.51724 4.67619 7.30931 1.52381 15.931 1.52381ZM1.51724 15.2381V10.9181C3.0819 12.5124 5.75983 13.7867 9.10345 14.5371V20.6019C4.39241 19.4857 1.51724 17.3105 1.51724 15.2381ZM13.6552 24.381V22.781C14.3967 22.8305 15.1572 22.8571 15.931 22.8571C16.7048 22.8571 17.4597 22.8305 18.2069 22.7829C19.1976 23.1448 20.2113 23.4395 21.2414 23.6648V29.7352C16.5303 28.6286 13.6552 26.4533 13.6552 24.381ZM22.7586 30.0419V23.9562C24.5145 24.2409 26.2904 24.3829 28.069 24.381C29.8474 24.3845 31.6232 24.2444 33.3793 23.9619V30.0419C29.8626 30.621 26.2754 30.621 22.7586 30.0419ZM42.4828 24.381C42.4828 26.4533 39.6076 28.6286 34.8966 29.7352V23.6705C38.2402 22.9295 40.9181 21.6552 42.4828 20.0514V24.381Z" fill="#FF67A0"/>
</svg>
