<?xml version="1.0" encoding="UTF-8" standalone="no"?>
<svg
   width="203"
   height="52"
   viewBox="0 0 203 52"
   fill="none"
   version="1.1"
   id="svg3"
   sodipodi:docname="icon-logo.svg"
   inkscape:version="1.3 (0e150ed6c4, 2023-07-21)"
   xmlns:inkscape="http://www.inkscape.org/namespaces/inkscape"
   xmlns:sodipodi="http://sodipodi.sourceforge.net/DTD/sodipodi-0.dtd"
   xmlns="http://www.w3.org/2000/svg"
   xmlns:svg="http://www.w3.org/2000/svg">
  <defs
     id="defs3" />
  <sodipodi:namedview
     id="namedview3"
     pagecolor="#ffffff"
     bordercolor="#000000"
     borderopacity="0.25"
     inkscape:showpageshadow="2"
     inkscape:pageopacity="0.0"
     inkscape:pagecheckerboard="0"
     inkscape:deskcolor="#d1d1d1"
     inkscape:zoom="7.6847291"
     inkscape:cx="101.5"
     inkscape:cy="26.025641"
     inkscape:window-width="2560"
     inkscape:window-height="1366"
     inkscape:window-x="0"
     inkscape:window-y="0"
     inkscape:window-maximized="1"
     inkscape:current-layer="svg3" />
  <rect
     x="0.529248"
     y="0.529248"
     width="201.941"
     height="50.9415"
     stroke="white"
     stroke-width="1.0585"
     id="rect1" />
  <rect
     x="6.88086"
     y="6.88025"
     width="76.7409"
     height="38.6351"
     fill="black"
     id="rect2" />
  <path
     d="M40.1625 14.7858V37.8802H37.4561L24.8715 19.7475H24.6459V37.8802H21.8493V14.7858H24.5557L37.1855 32.9637H37.411V14.7858H40.1625ZM48.5551 14.7858V37.8802H45.7585V14.7858H48.5551ZM55.5156 14.7858L61.4696 24.3934H61.6501L67.6041 14.7858H70.8969L63.6347 26.333L70.8969 37.8802H67.6041L61.6501 28.453H61.4696L55.5156 37.8802H52.2228L59.6654 26.333L52.2228 14.7858H55.5156Z"
     fill="white"
     id="path2" />
  <path
     d="M91.7107 37.8802V14.7858H99.7847C101.393 14.7858 102.72 15.0639 103.765 15.6203C104.81 16.1691 105.588 16.9095 106.1 17.8417C106.611 18.7664 106.866 19.7926 106.866 20.9203C106.866 21.9126 106.69 22.732 106.336 23.3786C105.991 24.0251 105.532 24.5363 104.961 24.9122C104.397 25.2881 103.784 25.5662 103.123 25.7466V25.9722C103.829 26.0173 104.54 26.2654 105.254 26.7164C105.968 27.1675 106.566 27.814 107.047 28.656C107.528 29.498 107.769 30.5279 107.769 31.7458C107.769 32.9035 107.505 33.9447 106.979 34.8694C106.453 35.7941 105.622 36.5271 104.487 37.0683C103.352 37.6096 101.875 37.8802 100.055 37.8802H91.7107ZM94.5073 35.3994H100.055C101.882 35.3994 103.179 35.0461 103.946 34.3394C104.72 33.6252 105.107 32.7607 105.107 31.7458C105.107 30.9639 104.908 30.2422 104.51 29.5807C104.111 28.9116 103.544 28.3778 102.807 27.9794C102.07 27.5734 101.198 27.3705 100.191 27.3705H94.5073V35.3994ZM94.5073 24.9347H99.6945C100.536 24.9347 101.296 24.7693 101.972 24.4386C102.656 24.1078 103.198 23.6417 103.596 23.0403C104.002 22.4388 104.205 21.7322 104.205 20.9203C104.205 19.9054 103.852 19.0446 103.145 18.3379C102.438 17.6237 101.318 17.2666 99.7847 17.2666H94.5073V24.9347ZM127.519 14.7858H130.316V30.0768C130.316 31.6556 129.944 33.0651 129.2 34.3056C128.463 35.5385 127.422 36.512 126.076 37.2262C124.73 37.9329 123.152 38.2862 121.34 38.2862C119.528 38.2862 117.949 37.9329 116.604 37.2262C115.258 36.512 114.213 35.5385 113.469 34.3056C112.732 33.0651 112.364 31.6556 112.364 30.0768V14.7858H115.16V29.8513C115.16 30.979 115.408 31.9826 115.905 32.8622C116.401 33.7342 117.107 34.4221 118.025 34.9258C118.949 35.422 120.054 35.67 121.34 35.67C122.625 35.67 123.731 35.422 124.655 34.9258C125.58 34.4221 126.287 33.7342 126.775 32.8622C127.271 31.9826 127.519 30.979 127.519 29.8513V14.7858ZM154.485 22.0028H151.688C151.523 21.1984 151.233 20.4917 150.82 19.8828C150.414 19.2739 149.918 18.7627 149.331 18.3492C148.752 17.9282 148.11 17.6125 147.403 17.402C146.696 17.1915 145.96 17.0862 145.193 17.0862C143.794 17.0862 142.528 17.4395 141.392 18.1462C140.265 18.8529 139.366 19.8941 138.697 21.2698C138.036 22.6456 137.705 24.3333 137.705 26.333C137.705 28.3327 138.036 30.0205 138.697 31.3962C139.366 32.772 140.265 33.8132 141.392 34.5198C142.528 35.2265 143.794 35.5798 145.193 35.5798C145.96 35.5798 146.696 35.4746 147.403 35.2641C148.11 35.0536 148.752 34.7416 149.331 34.3281C149.918 33.9071 150.414 33.3922 150.82 32.7832C151.233 32.1668 151.523 31.4601 151.688 30.6632H154.485C154.274 31.8435 153.891 32.8998 153.334 33.832C152.778 34.7642 152.086 35.5573 151.26 36.2113C150.433 36.8578 149.504 37.3502 148.474 37.6885C147.452 38.0268 146.358 38.196 145.193 38.196C143.223 38.196 141.471 37.7149 139.938 36.7526C138.404 35.7903 137.198 34.4221 136.318 32.6479C135.438 30.8737 134.999 28.7688 134.999 26.333C134.999 23.8973 135.438 21.7923 136.318 20.0181C137.198 18.2439 138.404 16.8757 139.938 15.9135C141.471 14.9512 143.223 14.47 145.193 14.47C146.358 14.47 147.452 14.6392 148.474 14.9775C149.504 15.3158 150.433 15.812 151.26 16.466C152.086 17.1125 152.778 17.9019 153.334 18.8341C153.891 19.7588 154.274 20.815 154.485 22.0028ZM159.004 37.8802V14.7858H161.8V26.2428H162.071L172.445 14.7858H176.099L166.401 25.2054L176.099 37.8802H172.716L164.687 27.1449L161.8 30.3926V37.8802H159.004ZM192.349 20.5594C192.213 19.4167 191.664 18.5296 190.702 17.8981C189.74 17.2666 188.56 16.9509 187.161 16.9509C186.139 16.9509 185.244 17.1163 184.478 17.4471C183.718 17.7778 183.124 18.2327 182.696 18.8115C182.275 19.3904 182.064 20.0482 182.064 20.7849C182.064 21.4014 182.211 21.9314 182.504 22.3749C182.805 22.811 183.188 23.1756 183.654 23.4688C184.12 23.7544 184.609 23.9912 185.12 24.1792C185.631 24.3596 186.101 24.5062 186.53 24.619L188.875 25.2505C189.477 25.4083 190.146 25.6264 190.883 25.9045C191.627 26.1827 192.337 26.5623 193.014 27.0434C193.698 27.5171 194.262 28.126 194.705 28.8703C195.149 29.6145 195.371 30.5279 195.371 31.6105C195.371 32.8584 195.044 33.9861 194.39 34.9934C193.743 36.0008 192.796 36.8015 191.548 37.3954C190.308 37.9893 188.8 38.2862 187.026 38.2862C185.372 38.2862 183.94 38.0193 182.73 37.4856C181.527 36.9518 180.58 36.2076 179.888 35.2528C179.204 34.2981 178.817 33.1892 178.726 31.9262H181.613C181.688 32.7983 181.982 33.52 182.493 34.0913C183.012 34.6551 183.666 35.0761 184.455 35.3543C185.252 35.6249 186.109 35.7603 187.026 35.7603C188.094 35.7603 189.052 35.5873 189.902 35.2415C190.751 34.8882 191.424 34.3995 191.92 33.7756C192.416 33.1441 192.664 32.4073 192.664 31.5654C192.664 30.7986 192.45 30.1746 192.022 29.6934C191.593 29.2123 191.029 28.8214 190.33 28.5207C189.631 28.22 188.875 27.9568 188.063 27.7313L185.222 26.9194C183.418 26.4007 181.989 25.6602 180.937 24.6979C179.884 23.7356 179.358 22.4764 179.358 20.9203C179.358 19.6272 179.708 18.4995 180.407 17.5373C181.113 16.5675 182.061 15.8157 183.248 15.282C184.444 14.7407 185.778 14.47 187.252 14.47C188.74 14.47 190.063 14.7369 191.221 15.2707C192.379 15.7969 193.296 16.5186 193.972 17.4358C194.657 18.353 195.017 19.3942 195.055 20.5594H192.349Z"
     fill="#C6155D"
     id="path3"
     inkscape:export-filename="icon.png"
     inkscape:export-xdpi="236.45378"
     inkscape:export-ydpi="236.45378" />
</svg>
