<?xml version="1.0" encoding="UTF-8" standalone="no"?>
<svg
   width="200.01564"
   height="200"
   viewBox="0 0 200.01564 200"
   fill="none"
   version="1.1"
   id="svg3"
   sodipodi:docname="icon.svg"
   inkscape:version="1.3 (0e150ed6c4, 2023-07-21)"
   xmlns:inkscape="http://www.inkscape.org/namespaces/inkscape"
   xmlns:sodipodi="http://sodipodi.sourceforge.net/DTD/sodipodi-0.dtd"
   xmlns="http://www.w3.org/2000/svg"
   xmlns:svg="http://www.w3.org/2000/svg">
  <defs
     id="defs3" />
  <sodipodi:namedview
     id="namedview3"
     pagecolor="#ffffff"
     bordercolor="#000000"
     borderopacity="0.25"
     inkscape:showpageshadow="2"
     inkscape:pageopacity="0.0"
     inkscape:pagecheckerboard="0"
     inkscape:deskcolor="#d1d1d1"
     inkscape:zoom="3.8423645"
     inkscape:cx="143.14103"
     inkscape:cy="140.79872"
     inkscape:window-width="2560"
     inkscape:window-height="1366"
     inkscape:window-x="0"
     inkscape:window-y="0"
     inkscape:window-maximized="1"
     inkscape:current-layer="svg3" />
  <rect
     x="1.04821"
     y="1.04821"
     width="197.91922"
     height="197.90358"
     stroke="#ffffff"
     stroke-width="2.09642"
     id="rect1" />
  <g
     id="g3"
     transform="matrix(1.6880464,0,0,1.6880464,-68.810023,-68.204599)"
     inkscape:export-filename="./icon.png"
     inkscape:export-xdpi="239.98123"
     inkscape:export-ydpi="239.98123">
    <rect
       x="62.204327"
       y="67.777428"
       width="75.606987"
       height="38.064236"
       fill="#000000"
       id="rect2"
       style="stroke-width:0.985224" />
    <path
       d="M 93.888987,75.566164 V 98.319319 H 91.222576 L 78.823925,80.45455 H 78.601658 V 98.319319 H 75.846381 V 75.566164 h 2.66641 l 12.443184,17.909305 h 0.222168 V 75.566164 Z m 8.268593,0 V 98.319319 H 99.402301 V 75.566164 Z m 6.85765,0 5.86603,9.465639 h 0.17783 l 5.86602,-9.465639 h 3.24415 l -7.15489,11.37658 7.15489,11.376575 h -3.24415 l -5.86602,-9.2879 h -0.17783 l -5.86603,9.2879 h -3.24414 l 7.33263,-11.376575 -7.33263,-11.37658 z"
       fill="#ffffff"
       id="path2"
       style="stroke-width:0.985224" />
    <path
       d="m 48.943511,131.11163 v -22.75316 h 7.954699 c 1.584536,0 2.891924,0.27399 3.921484,0.82217 1.02956,0.54069 1.79607,1.27015 2.3005,2.18858 0.50345,0.91104 0.75468,1.92207 0.75468,3.03311 0,0.97764 -0.1734,1.78493 -0.52217,2.42198 -0.3399,0.63694 -0.79212,1.14059 -1.35468,1.51094 -0.55567,0.37034 -1.15961,0.64433 -1.81084,0.82207 v 0.22226 c 0.69557,0.0444 1.39606,0.28887 2.09951,0.73321 0.70345,0.44443 1.29261,1.08138 1.76651,1.91094 0.47389,0.82956 0.71133,1.84424 0.71133,3.04415 0,1.14059 -0.2601,2.1664 -0.77833,3.07744 -0.51823,0.91104 -1.33695,1.63321 -2.45518,2.16641 -1.11823,0.5333 -2.5734,0.7999 -4.366508,0.7999 z m 2.755277,-2.44414 h 5.465728 c 1.799998,0 3.077838,-0.34808 3.833508,-1.04434 0.76256,-0.70364 1.14384,-1.55537 1.14384,-2.55527 0,-0.77035 -0.19606,-1.48139 -0.58818,-2.13311 -0.3931,-0.65922 -0.95172,-1.18513 -1.67783,-1.57764 -0.72611,-0.4 -1.585227,-0.59991 -2.577347,-0.59991 h -5.599719 z m 0,-10.31008 h 5.110555 c 0.829066,0 1.577836,-0.16295 2.243841,-0.48877 0.6739,-0.32591 1.20789,-0.78512 1.60001,-1.37764 0.4,-0.59261 0.6,-1.28877 0.6,-2.08867 0,-0.9999 -0.34778,-1.84799 -1.04434,-2.54424 -0.69655,-0.70365 -1.8,-1.05547 -3.310644,-1.05547 h -5.199422 z m 32.523926,-9.99894 h 2.75567 v 15.06507 c 0,1.55547 -0.36651,2.94414 -1.09951,4.16631 -0.72611,1.21469 -1.75173,2.1738 -3.07784,2.87745 -1.32611,0.69626 -2.8808,1.04434 -4.66602,1.04434 -1.78523,0 -3.3409,-0.34808 -4.66603,-1.04434 -1.32611,-0.70365 -2.35567,-1.66276 -3.08867,-2.87745 -0.72611,-1.22217 -1.08868,-2.61084 -1.08868,-4.16631 v -15.06507 h 2.75469 v 14.8429 c 0,1.11104 0.24434,2.09981 0.73399,2.96641 0.48867,0.85912 1.18424,1.53685 2.08868,2.03311 0.91034,0.48887 1.99902,0.7332 3.26602,0.7332 1.26601,0 2.35567,-0.24433 3.26601,-0.7332 0.91134,-0.49626 1.60789,-1.17399 2.08868,-2.03311 0.48867,-0.8666 0.73301,-1.85537 0.73301,-2.96641 z m 26.567546,7.11036 h -2.75567 c -0.16256,-0.79251 -0.44828,-1.48877 -0.85518,-2.08867 -0.4,-0.5999 -0.88867,-1.10355 -1.467,-1.51094 -0.57044,-0.41478 -1.20295,-0.72581 -1.89951,-0.9332 -0.69655,-0.20739 -1.42168,-0.31114 -2.17734,-0.31114 -1.37833,0 -2.625626,0.34808 -3.744836,1.04434 -1.11035,0.69626 -1.99606,1.72207 -2.65518,3.07745 -0.65123,1.35547 -0.97734,3.01823 -0.97734,4.98838 0,1.97016 0.32611,3.63302 0.97734,4.98839 0.65912,1.35547 1.54483,2.38129 2.65518,3.07745 1.11921,0.69626 2.366506,1.04433 3.744836,1.04433 0.75566,0 1.48079,-0.10364 2.17734,-0.31103 0.69656,-0.20739 1.32907,-0.51478 1.89951,-0.92217 0.57833,-0.41478 1.067,-0.92207 1.467,-1.52207 0.4069,-0.6073 0.69262,-1.30355 0.85518,-2.08868 h 2.75567 c -0.20788,1.16286 -0.58522,2.20355 -1.13399,3.12198 -0.54779,0.91843 -1.22956,1.69981 -2.04336,2.34414 -0.81478,0.63695 -1.73005,1.12208 -2.74483,1.45538 -1.0069,0.3333 -2.08474,0.5 -3.23252,0.5 -1.940886,0 -3.667006,-0.47399 -5.177356,-1.42207 -1.51133,-0.94809 -2.69951,-2.29607 -3.56651,-4.04405 -0.86699,-1.74799 -1.29951,-3.82179 -1.29951,-6.2216 0,-2.39971 0.43252,-4.4736 1.29951,-6.22159 0.867,-1.74798 2.05518,-3.09597 3.56651,-4.04395 1.51035,-0.94808 3.23647,-1.42217 5.177356,-1.42217 1.14778,0 2.22562,0.1667 3.23252,0.5 1.01478,0.3333 1.93005,0.82217 2.74483,1.46651 0.8138,0.63694 1.49557,1.41468 2.04336,2.33311 0.54877,0.91103 0.92611,1.95163 1.13399,3.12187 z m 4.45223,15.6428 v -22.75316 h 2.75468 v 11.28772 h 0.267 l 10.22071,-11.28772 h 3.60001 l -9.5547,10.26564 9.5547,12.48752 h -3.33301 l -7.91036,-10.57667 -2.84435,3.19971 v 7.37696 z m 32.8523,-17.06487 c -0.13399,-1.12581 -0.67488,-1.99981 -1.62267,-2.62197 -0.94778,-0.62217 -2.11035,-0.93321 -3.48868,-0.93321 -1.0069,0 -1.88867,0.16296 -2.64335,0.48887 -0.74877,0.32581 -1.334,0.77399 -1.75567,1.34424 -0.41478,0.57035 -0.62266,1.21843 -0.62266,1.94424 0,0.60739 0.14482,1.12956 0.43349,1.56651 0.29656,0.42965 0.6739,0.78887 1.13301,1.07773 0.45912,0.28138 0.94089,0.51468 1.44434,0.69991 0.50345,0.17773 0.96651,0.32217 1.38917,0.4333 l 2.31035,0.62217 c 0.5931,0.15547 1.25222,0.37034 1.97833,0.64433 0.733,0.27409 1.43251,0.64809 2.09951,1.12208 0.67389,0.4667 1.22956,1.0666 1.66601,1.7999 0.43744,0.73321 0.65616,1.63311 0.65616,2.69971 0,1.22947 -0.32216,2.3405 -0.9665,3.33292 -0.63744,0.99251 -1.57045,1.78138 -2.80001,2.36651 -1.22168,0.58512 -2.70739,0.87764 -4.45518,0.87764 -1.62956,0 -3.0404,-0.26296 -4.23252,-0.78877 -1.18523,-0.52592 -2.11824,-1.25912 -2.80001,-2.19981 -0.6739,-0.9406 -1.05518,-2.03311 -1.14483,-3.27745 h 2.84434 c 0.0739,0.85921 0.36355,1.57025 0.867,2.13311 0.51133,0.55547 1.15566,0.97025 1.93301,1.24434 0.78522,0.2666 1.62956,0.4 2.53301,0.4 1.05222,0 1.99606,-0.17045 2.8335,-0.51114 0.83646,-0.34808 1.49951,-0.82956 1.98818,-1.44424 0.48868,-0.62217 0.73301,-1.34808 0.73301,-2.17754 0,-0.75547 -0.21084,-1.37025 -0.63251,-1.84434 -0.42266,-0.47399 -0.97833,-0.85911 -1.667,-1.15537 -0.68867,-0.29626 -1.4335,-0.55557 -2.2335,-0.77774 l -2.79903,-0.7999 c -1.77734,-0.51104 -3.18523,-1.2406 -4.22168,-2.18868 -1.03744,-0.94808 -1.55567,-2.18867 -1.55567,-3.72178 0,-1.27399 0.34483,-2.38503 1.0335,-3.33301 0.69557,-0.95547 1.62956,-1.69617 2.79902,-2.22198 1.17833,-0.5333 2.49262,-0.8 3.94484,-0.8 1.46601,0 2.76946,0.26295 3.91035,0.78887 1.14089,0.51842 2.04434,1.22946 2.71035,2.13311 0.67488,0.90364 1.02956,1.92946 1.067,3.07744 z"
       fill="#c6155d"
       id="path3"
       inkscape:export-filename="icon.png"
       inkscape:export-xdpi="236.45378"
       inkscape:export-ydpi="236.45378"
       style="stroke-width:0.985224" />
  </g>
</svg>
