<?xml version="1.0" encoding="UTF-8" standalone="no"?>
<svg
   width="32"
   height="33.729881"
   viewBox="0 0 32 33.729881"
   fill="none"
   version="1.1"
   id="svg1"
   sodipodi:docname="Vector.svg"
   inkscape:version="1.3 (0e150ed6c4, 2023-07-21)"
   xmlns:inkscape="http://www.inkscape.org/namespaces/inkscape"
   xmlns:sodipodi="http://sodipodi.sourceforge.net/DTD/sodipodi-0.dtd"
   xmlns="http://www.w3.org/2000/svg"
   xmlns:svg="http://www.w3.org/2000/svg">
  <defs
     id="defs1" />
  <sodipodi:namedview
     id="namedview1"
     pagecolor="#ffffff"
     bordercolor="#999999"
     borderopacity="1"
     inkscape:showpageshadow="2"
     inkscape:pageopacity="0"
     inkscape:pagecheckerboard="0"
     inkscape:deskcolor="#d1d1d1"
     inkscape:zoom="12.065327"
     inkscape:cx="34.147437"
     inkscape:cy="11.935026"
     inkscape:window-width="1920"
     inkscape:window-height="1008"
     inkscape:window-x="0"
     inkscape:window-y="0"
     inkscape:window-maximized="1"
     inkscape:current-layer="svg1" />
  <path
     id="Vector"
     fill-rule="evenodd"
     clip-rule="evenodd"
     d="m 4.0947953,9.5191529 c 0.3430965,-0.022776 0.6811859,0.091595 0.9399906,0.3179671 0.2588047,0.226372 0.4171482,0.546221 0.4402259,0.889299 l 0.7956141,11.934099 c 0.1556706,2.329788 0.2663529,3.952188 0.5084988,5.171576 0.2369506,1.184753 0.5655718,1.810824 1.03776,2.253553 0.4739012,0.442918 1.1207718,0.729977 2.3176473,0.885647 1.234917,0.160753 2.860743,0.16433 5.195689,0.16433 h 1.338692 c 2.334946,0 3.960734,-0.0036 5.195746,-0.16433 1.1968,-0.15567 1.843765,-0.442729 2.317553,-0.885647 0.472282,-0.442729 0.800753,-1.0688 1.037741,-2.251859 0.242259,-1.221082 0.352941,-2.843482 0.508612,-5.174964 l 0.795482,-11.932405 c 0.01148,-0.170014 0.05609,-0.336113 0.131765,-0.488847 0.07548,-0.152716 0.180329,-0.2890732 0.308706,-0.4012426 0.128188,-0.1121882 0.27727,-0.1980235 0.438588,-0.2525929 0.161506,-0.054551 0.332047,-0.0768 0.502023,-0.065449 0.170165,0.011369 0.336189,0.056094 0.488847,0.1316517 0.152848,0.075539 0.28913,0.1804424 0.401318,0.3086871 0.112188,0.1282447 0.198024,0.2773267 0.252612,0.4387387 0.05459,0.161411 0.0768,0.33199 0.06532,0.502004 l -0.802448,12.024113 c -0.147011,2.217412 -0.266352,4.010918 -0.546447,5.417036 -0.292329,1.461458 -0.787011,2.682541 -1.811011,3.639153 -1.022118,0.958117 -2.274447,1.371482 -3.753224,1.563482 -1.421741,0.186729 -3.216941,0.186729 -5.441242,0.186729 h -1.51857 c -2.224263,0 -4.019576,0 -5.4412985,-0.186729 C 8.3201882,33.351153 7.0679718,32.937788 6.0457788,31.979671 5.0218541,31.023059 4.5272094,29.800282 4.2348988,28.340518 3.9547106,26.932706 3.8371012,25.140894 3.6883576,22.923482 L 2.8858165,10.899369 C 2.8745415,10.729355 2.8968845,10.558776 2.9515295,10.397402 3.0061925,10.236009 3.0921225,10.086984 3.204386,9.9588141 3.3166494,9.8306447 3.4530824,9.7258353 3.6058541,9.6504094 3.7586447,9.5749647 3.9247812,9.5303718 4.0947953,9.5191529 Z M 13.154391,0.00295708 h -0.07957 c -0.373591,0 -0.70048,2.1e-7 -1.008339,0.04842871 -0.59968,0.09606663 -1.168527,0.33114974 -1.661083,0.68644198 C 9.9128659,1.09312 9.5103059,1.5587576 9.2299482,2.0974871 9.0846682,2.3742306 8.9826259,2.6838212 8.8650165,3.0383812 L 8.8390776,3.1144847 8.6713035,3.6160753 C 8.5388424,4.0867953 8.2507294,4.4987294 7.8539671,4.7845835 7.4572235,5.0704376 6.9752847,5.2133647 6.4868329,5.1900047 H 1.2980574 c -0.34426728,0 -0.67443199,0.1367529 -0.9178654,0.3801788 C 0.13675896,5.8136282 0,6.1437929 0,6.4880565 0,6.83232 0.13675896,7.1624847 0.380192,7.4059106 0.62362541,7.6493553 0.95379012,7.7861082 1.2980574,7.7861082 H 30.702871 c 0.343905,0 0.673882,-0.1366588 0.91727,-0.3799341 C 31.863341,7.1628988 32,6.83296 32,6.4889224 32,6.1448847 31.863341,5.8149271 31.620141,5.5716706 31.376753,5.3283953 31.046776,5.1917176 30.702871,5.1917176 H 25.356612 C 24.894682,5.1806494 24.448376,5.0218353 24.0832,4.7385788 23.718212,4.4553224 23.453365,4.0625318 23.327812,3.6178071 L 23.160094,3.1144847 23.135812,3.0383812 C 23.016471,2.6838212 22.914447,2.3742306 22.770824,2.0974871 22.490353,1.5585468 22.087529,1.0927755 21.594729,0.73747012 21.101929,0.38216659 20.532706,0.14719981 19.932612,0.05138579 19.598306,0.0089507 19.261176,-0.00724183 18.924235,0.00295708 Z m -2.0928,4.64395112 C 10.992414,4.8354259 10.914579,5.0170353 10.82464,5.1917176 H 21.174588 C 21.084988,5.0157365 21.006306,4.8343529 20.939294,4.64864 L 20.870024,4.4514635 20.698918,3.9325929 C 20.635671,3.7158024 20.558682,3.5032282 20.468894,3.2960941 20.375529,3.1162353 20.241318,2.9607529 20.076988,2.8421082 19.912659,2.7234635 19.722918,2.6449694 19.522824,2.6129129 19.297318,2.5934871 19.070871,2.5882918 18.8448,2.5973459 h -5.690409 c -0.498127,0 -0.601902,0.00346 -0.678005,0.017299 -0.199925,0.031868 -0.389628,0.1100988 -0.55392,0.2284424 -0.164273,0.1183247 -0.298579,0.2734682 -0.392151,0.453007 -0.0346,0.069177 -0.07266,0.1643106 -0.230042,0.6382118 l -0.172951,0.5188894 z"
     fill="#111111"
     style="stroke-width:1.88235" />
</svg>
